<svg xmlns="http://www.w3.org/2000/svg" xmlns:xlink="http://www.w3.org/1999/xlink" version="1.1" id="Layer_1" x="0px" y="0px" style="enable-background:new 0 0 3276.62 1236.61;" xml:space="preserve" viewBox="1098.32 382.7 1079.98 471.21">
<style type="text/css">
	.st0{fill:#231F20;}
	.st1{fill:#F2F2F2;}
	.st2{fill:#FF007B;}
	.st3{fill:#0D0D0D;}
	.st4{fill:#A463FF;}
	.st5{fill:#00E29C;}
	.st6{fill:url(#SVGID_1_);}
	.st7{fill:url(#SVGID_00000019665657707017734640000000504559438532040610_);}
	.st8{fill:url(#SVGID_00000047030743370072904960000002675026924898529191_);}
	.st9{fill:url(#SVGID_00000169556780837233809960000013255009498874129814_);}
	.st10{fill:#FFB600;}
</style>
<g>
	<g>
		<g>
			<path class="st2" d="M1545.06,779.45L1473.69,740c46.04-83.29,21.68-190.36-55.46-243.77c-74.37-51.48-178.03-40.06-241.13,26.57     l-59.2-56.08c90.52-95.58,239.59-111.73,346.75-37.54c54.02,37.4,92.04,93.81,107.05,158.86     C1586.73,653.2,1577.27,721.18,1545.06,779.45z"/>
		</g>
		<g>
			<path class="st2" d="M1449.97,814.97l-57.77-31.94c36.06-65.22,16.98-149.07-43.42-190.9c-58.23-40.3-139.41-31.36-188.83,20.81     l-47.92-45.39c71.61-75.62,189.56-88.38,274.33-29.7C1474.28,598.74,1502.23,720.46,1449.97,814.97z"/>
		</g>
		<g>
			<path class="st2" d="M1369.84,853.2l-44.18-24.43c29.6-53.54,13.94-122.38-35.66-156.72c-47.81-33.09-114.47-25.76-155.03,17.08     l-36.65-34.71c57.55-60.76,152.31-71.02,220.42-23.87C1389.37,679.45,1411.82,777.26,1369.84,853.2z"/>
		</g>
	</g>
	<g>
		<path class="st1" d="M1581.5,824.55c1.02-0.41,1.8-1.01,2.36-1.82c0.56-0.81,0.85-1.75,0.85-2.8c0-1.75-0.51-3.05-1.53-3.92    c-1.02-0.85-2.63-1.29-4.81-1.29h-5.17v17.64h2.93v-7h2.66l4.09,7h3.33L1581.5,824.55z M1578.26,822.93h-2.13v-5.68h2.1    c1.22,0,2.12,0.21,2.68,0.63c0.56,0.42,0.86,1.15,0.86,2.13c0,0.85-0.33,1.53-0.97,2.08    C1580.16,822.65,1579.31,822.93,1578.26,822.93z M1581.5,824.55c1.02-0.41,1.8-1.01,2.36-1.82c0.56-0.81,0.85-1.75,0.85-2.8    c0-1.75-0.51-3.05-1.53-3.92c-1.02-0.85-2.63-1.29-4.81-1.29h-5.17v17.64h2.93v-7h2.66l4.09,7h3.33L1581.5,824.55z     M1578.26,822.93h-2.13v-5.68h2.1c1.22,0,2.12,0.21,2.68,0.63c0.56,0.42,0.86,1.15,0.86,2.13c0,0.85-0.33,1.53-0.97,2.08    C1580.16,822.65,1579.31,822.93,1578.26,822.93z M1591.55,816.09c-1.34-2.31-3.16-4.13-5.47-5.45c-2.31-1.32-4.78-1.98-7.41-1.98    c-2.68,0-5.15,0.67-7.46,1.99c-2.31,1.34-4.13,3.16-5.45,5.47c-1.3,2.31-1.97,4.78-1.97,7.41c0,2.61,0.65,5.06,1.94,7.35    c1.27,2.28,3.07,4.09,5.38,5.47c2.31,1.36,4.83,2.05,7.57,2.05c2.73,0,5.26-0.69,7.57-2.06c2.31-1.38,4.11-3.19,5.38-5.48    c1.29-2.28,1.92-4.71,1.92-7.32C1593.55,820.87,1592.88,818.38,1591.55,816.09z M1589.74,829.95c-1.15,1.96-2.72,3.51-4.67,4.66    c-1.98,1.16-4.09,1.73-6.38,1.73c-2.28,0-4.41-0.56-6.38-1.71c-1.99-1.15-3.54-2.7-4.71-4.69c-1.15-1.98-1.71-4.11-1.71-6.4    c0-2.31,0.58-4.46,1.73-6.42c1.15-1.96,2.72-3.51,4.67-4.66c1.98-1.15,4.11-1.71,6.4-1.71c2.31,0,4.46,0.56,6.42,1.73    c1.96,1.15,3.51,2.72,4.66,4.67c1.15,1.98,1.71,4.09,1.71,6.38C1591.47,825.86,1590.9,827.99,1589.74,829.95z M1583.86,822.74    c0.56-0.81,0.85-1.75,0.85-2.8c0-1.75-0.51-3.05-1.53-3.92c-1.02-0.85-2.63-1.29-4.81-1.29h-5.17v17.64h2.93v-7h2.66l4.09,7h3.33    l-4.71-7.81C1582.52,824.15,1583.3,823.55,1583.86,822.74z M1578.26,822.93h-2.13v-5.68h2.1c1.22,0,2.12,0.21,2.68,0.63    c0.56,0.42,0.86,1.15,0.86,2.13c0,0.85-0.33,1.53-0.97,2.08C1580.16,822.65,1579.31,822.93,1578.26,822.93z M1581.5,824.55    c1.02-0.41,1.8-1.01,2.36-1.82c0.56-0.81,0.85-1.75,0.85-2.8c0-1.75-0.51-3.05-1.53-3.92c-1.02-0.85-2.63-1.29-4.81-1.29h-5.17    v17.64h2.93v-7h2.66l4.09,7h3.33L1581.5,824.55z M1578.26,822.93h-2.13v-5.68h2.1c1.22,0,2.12,0.21,2.68,0.63    c0.56,0.42,0.86,1.15,0.86,2.13c0,0.85-0.33,1.53-0.97,2.08C1580.16,822.65,1579.31,822.93,1578.26,822.93z M1581.5,824.55    c1.02-0.41,1.8-1.01,2.36-1.82c0.56-0.81,0.85-1.75,0.85-2.8c0-1.75-0.51-3.05-1.53-3.92c-1.02-0.85-2.63-1.29-4.81-1.29h-5.17    v17.64h2.93v-7h2.66l4.09,7h3.33L1581.5,824.55z M1578.26,822.93h-2.13v-5.68h2.1c1.22,0,2.12,0.21,2.68,0.63    c0.56,0.42,0.86,1.15,0.86,2.13c0,0.85-0.33,1.53-0.97,2.08C1580.16,822.65,1579.31,822.93,1578.26,822.93z"/>
	</g>
	<g>
		<path class="st3" d="M1972.69,394.78c-8.07-7.85-18.08-11.81-29.99-11.81c-11.92,0-21.92,3.95-29.99,11.81    c-8.1,7.88-12.13,17.78-12.13,29.69s4.04,21.81,12.13,29.67c8.07,7.88,18.08,11.81,29.99,11.81c11.92,0,21.92-3.93,29.99-11.81    c8.1-7.85,12.13-17.75,12.13-29.67S1980.79,402.66,1972.69,394.78z M1971.22,432.65c-1.99,1.96-4.72,3.19-7.72,3.19h-23.1    c-6,0-10.88-4.88-10.88-10.91c0-3,1.23-5.73,3.19-7.69c1.96-1.96,4.69-3.19,7.69-3.19h23.1c6.03,0,10.91,4.88,10.91,10.88    C1974.41,427.96,1973.18,430.69,1971.22,432.65z"/>
		<path class="st3" d="M2166.17,394.78c-8.07-7.85-18.08-11.81-29.99-11.81s-21.92,3.95-30.02,11.81    c-8.07,7.88-12.11,17.78-12.11,29.69s4.04,21.81,12.11,29.67c8.1,7.88,18.11,11.81,30.02,11.81s21.92-3.93,29.99-11.81    c8.1-7.85,12.13-17.75,12.13-29.67S2174.27,402.66,2166.17,394.78z M2164.7,432.65c-1.99,1.96-4.72,3.19-7.72,3.19h-23.1    c-6,0-10.88-4.88-10.88-10.91c0-3,1.23-5.73,3.19-7.69c1.96-1.96,4.69-3.19,7.69-3.19h23.1c6.03,0,10.91,4.88,10.91,10.88    C2167.89,427.96,2166.67,430.69,2164.7,432.65z"/>
		<path class="st3" d="M1890.44,489.15H1696v49.71h119.89L1696,681.16v48.75h194.44v-49.71h-121.83l121.83-141.84V489.15z"/>
		<rect x="1912.96" y="489.15" class="st3" width="59.47" height="240.77"/>
		<path class="st3" d="M1901.97,758.6c6.44,28.88,23.8,43.33,52.03,43.33c2.02,0,3.95-0.08,5.84-0.22    c10.36-0.76,19.09-3.63,26.2-8.59c3.63-2.54,6.84-5.59,9.63-9.19c5.29-6.93,9.11-15.35,11.34-25.33    c1.69-7.36,2.54-15.57,2.54-24.59v-17.72h0.16V489.15h59.47v246.63c0,35.42-10.63,63.97-31.88,85.65    c-12.41,12.6-27.16,21.51-44.34,26.78c-12.35,3.82-25.9,5.7-40.71,5.7c-34.66,0-61.41-10.74-80.3-32.18    c-14.32-16.25-23.2-37.3-26.67-63.12H1901.97z"/>
		<rect x="2106.45" y="489.15" class="st3" width="59.47" height="240.77"/>
	</g>
</g>
</svg>