<svg xmlns="http://www.w3.org/2000/svg" xmlns:xlink="http://www.w3.org/1999/xlink" version="1.1" id="Layer_1" x="0px" y="0px" style="enable-background:new 0 0 3276.62 1236.61;" xml:space="preserve" viewBox="1098.31 382.7 1079.99 471.21">
<style type="text/css">
	.st0{fill:#231F20;}
	.st1{fill:#F2F2F2;}
	.st2{fill:#FF007B;}
	.st3{fill:#0D0D0D;}
	.st4{fill:#A463FF;}
	.st5{fill:#00E29C;}
	.st6{fill:url(#SVGID_1_);}
	.st7{fill:url(#SVGID_00000116204453811783567600000015036514482919801515_);}
	.st8{fill:url(#SVGID_00000067231068544127375430000008886464315503123855_);}
	.st9{fill:url(#SVGID_00000024691173919284738200000010118997481940822438_);}
	.st10{fill:#FFB600;}
</style>
<g>
	<linearGradient id="SVGID_1_" gradientUnits="userSpaceOnUse" x1="1230.7028" y1="764.7428" x2="1509.1631" y2="373.3252">
		<stop offset="0" style="stop-color:#FF007B"/>
		<stop offset="1" style="stop-color:#A463FF"/>
	</linearGradient>
	<path class="st6" d="M1545.06,779.45L1473.69,740c46.04-83.29,21.68-190.36-55.46-243.77c-74.37-51.48-178.03-40.06-241.13,26.57   l-59.2-56.08c90.52-95.58,239.59-111.73,346.75-37.54c54.02,37.4,92.04,93.81,107.05,158.86   C1586.73,653.2,1577.27,721.18,1545.06,779.45z M1386.35,537.86c-84.77-58.68-202.71-45.92-274.33,29.7l47.92,45.39   c49.42-52.17,130.6-61.12,188.83-20.81c60.4,41.82,79.48,125.67,43.42,190.9l57.77,31.94   C1502.23,720.46,1474.28,598.74,1386.35,537.86z M1318.73,630.54c-68.11-47.14-162.87-36.89-220.42,23.87l36.65,34.71   c40.56-42.84,107.21-50.17,155.03-17.08c49.6,34.34,65.27,103.18,35.66,156.72l44.18,24.43   C1411.82,777.26,1389.37,679.45,1318.73,630.54z"/>
	<g>
		<path class="st1" d="M1972.69,394.78c-8.07-7.85-18.08-11.81-29.99-11.81c-11.92,0-21.92,3.95-29.99,11.81    c-8.1,7.88-12.13,17.78-12.13,29.69s4.04,21.81,12.13,29.67c8.07,7.88,18.08,11.81,29.99,11.81c11.92,0,21.92-3.93,29.99-11.81    c8.1-7.85,12.13-17.75,12.13-29.67S1980.79,402.66,1972.69,394.78z M1971.22,432.65c-1.99,1.96-4.72,3.19-7.72,3.19h-23.1    c-6,0-10.88-4.88-10.88-10.91c0-3,1.23-5.73,3.19-7.69c1.96-1.96,4.69-3.19,7.69-3.19h23.1c6.03,0,10.91,4.88,10.91,10.88    C1974.41,427.96,1973.18,430.69,1971.22,432.65z"/>
		<path class="st1" d="M2166.17,394.78c-8.07-7.85-18.08-11.81-29.99-11.81s-21.92,3.95-30.02,11.81    c-8.07,7.88-12.11,17.78-12.11,29.69s4.04,21.81,12.11,29.67c8.1,7.88,18.11,11.81,30.02,11.81s21.92-3.93,29.99-11.81    c8.1-7.85,12.13-17.75,12.13-29.67S2174.27,402.66,2166.17,394.78z M2164.7,432.65c-1.99,1.96-4.72,3.19-7.72,3.19h-23.1    c-6,0-10.88-4.88-10.88-10.91c0-3,1.23-5.73,3.19-7.69c1.96-1.96,4.69-3.19,7.69-3.19h23.1c6.03,0,10.91,4.88,10.91,10.88    C2167.89,427.96,2166.67,430.69,2164.7,432.65z"/>
		<path class="st1" d="M1890.44,489.15H1696v49.71h119.89L1696,681.16v48.75h194.44v-49.71h-121.83l121.83-141.84V489.15z"/>
		<rect x="1912.96" y="489.15" class="st1" width="59.47" height="240.77"/>
		<path class="st1" d="M1901.97,758.6c6.44,28.88,23.8,43.33,52.03,43.33c2.02,0,3.95-0.08,5.84-0.22    c10.36-0.76,19.09-3.63,26.2-8.59c3.63-2.54,6.84-5.59,9.63-9.19c5.29-6.93,9.11-15.35,11.34-25.33    c1.69-7.36,2.54-15.57,2.54-24.59v-17.72h0.16V489.15h59.47v246.63c0,35.42-10.63,63.97-31.88,85.65    c-12.41,12.6-27.16,21.51-44.34,26.78c-12.35,3.82-25.9,5.7-40.71,5.7c-34.66,0-61.41-10.74-80.3-32.18    c-14.32-16.25-23.2-37.3-26.67-63.12H1901.97z"/>
		<rect x="2106.45" y="489.15" class="st1" width="59.47" height="240.77"/>
	</g>
</g>
</svg>